%TF.GenerationSoftware,KiCad,Pcbnew,8.0.1*%
%TF.CreationDate,2025-07-05T17:57:54-03:00*%
%TF.ProjectId,camera,63616d65-7261-42e6-9b69-6361645f7063,rev?*%
%TF.SameCoordinates,Original*%
%TF.FileFunction,Other,User*%
%FSLAX46Y46*%
G04 Gerber Fmt 4.6, Leading zero omitted, Abs format (unit mm)*
G04 Created by KiCad (PCBNEW 8.0.1) date 2025-07-05 17:57:54*
%MOMM*%
%LPD*%
G01*
G04 APERTURE LIST*
%ADD10C,0.050000*%
G04 APERTURE END LIST*
%TO.C,U1*%
D10*
X155607000Y-104542000D02*
X134632000Y-104542000D01*
X134632000Y-122342000D01*
X155607000Y-122342000D01*
X155607000Y-104542000D01*
%TO.C,SW5*%
X102412000Y-74382000D02*
X115612000Y-74382000D01*
X102412000Y-87582000D02*
X102412000Y-74382000D01*
X115612000Y-74382000D02*
X115612000Y-87582000D01*
X115612000Y-87582000D02*
X102412000Y-87582000D01*
%TO.C,SW4*%
X121412000Y-74382000D02*
X134612000Y-74382000D01*
X121412000Y-87582000D02*
X121412000Y-74382000D01*
X134612000Y-74382000D02*
X134612000Y-87582000D01*
X134612000Y-87582000D02*
X121412000Y-87582000D01*
%TO.C,SW3*%
X140412000Y-74382000D02*
X153612000Y-74382000D01*
X140412000Y-87582000D02*
X140412000Y-74382000D01*
X153612000Y-74382000D02*
X153612000Y-87582000D01*
X153612000Y-87582000D02*
X140412000Y-87582000D01*
%TO.C,SW2*%
X159912000Y-74382000D02*
X173112000Y-74382000D01*
X159912000Y-87582000D02*
X159912000Y-74382000D01*
X173112000Y-74382000D02*
X173112000Y-87582000D01*
X173112000Y-87582000D02*
X159912000Y-87582000D01*
%TO.C,SW1*%
X192112000Y-87582000D02*
X178912000Y-87582000D01*
X192112000Y-74382000D02*
X192112000Y-87582000D01*
X178912000Y-87582000D02*
X178912000Y-74382000D01*
X178912000Y-74382000D02*
X192112000Y-74382000D01*
%TO.C,R5*%
X153062000Y-125912000D02*
X150962000Y-125912000D01*
X150962000Y-125912000D02*
X150962000Y-132892000D01*
X153062000Y-132892000D02*
X153062000Y-125912000D01*
X150962000Y-132892000D02*
X153062000Y-132892000D01*
%TO.C,R4*%
X139462000Y-133012000D02*
X141562000Y-133012000D01*
X141562000Y-133012000D02*
X141562000Y-126032000D01*
X139462000Y-126032000D02*
X139462000Y-133012000D01*
X141562000Y-126032000D02*
X139462000Y-126032000D01*
%TO.C,R3*%
X130562000Y-125762000D02*
X128462000Y-125762000D01*
X128462000Y-125762000D02*
X128462000Y-132742000D01*
X130562000Y-132742000D02*
X130562000Y-125762000D01*
X128462000Y-132742000D02*
X130562000Y-132742000D01*
%TO.C,R2*%
X168962000Y-100032000D02*
X168962000Y-97932000D01*
X168962000Y-97932000D02*
X161982000Y-97932000D01*
X161982000Y-100032000D02*
X168962000Y-100032000D01*
X161982000Y-97932000D02*
X161982000Y-100032000D01*
%TO.C,R1*%
X122792000Y-97932000D02*
X122792000Y-100032000D01*
X122792000Y-100032000D02*
X129772000Y-100032000D01*
X129772000Y-97932000D02*
X122792000Y-97932000D01*
X129772000Y-100032000D02*
X129772000Y-97932000D01*
%TO.C,D5*%
X155872000Y-131962000D02*
G75*
G02*
X159152000Y-131962000I1640000J2756592D01*
G01*
X155872000Y-131962000D02*
X159152000Y-131962000D01*
%TO.C,D4*%
X143872000Y-132462000D02*
G75*
G02*
X147152000Y-132462000I1640000J2756592D01*
G01*
X143872000Y-132462000D02*
X147152000Y-132462000D01*
%TO.C,D3*%
X136152000Y-126692000D02*
X132872000Y-126692000D01*
X136152000Y-126692000D02*
G75*
G02*
X132872000Y-126692000I-1640000J-2756592D01*
G01*
%TO.C,D2*%
X162992000Y-102342000D02*
G75*
G02*
X162992000Y-105622000I2756592J-1640000D01*
G01*
X162992000Y-102342000D02*
X162992000Y-105622000D01*
%TO.C,D1*%
X123262000Y-102342000D02*
X123262000Y-105622000D01*
X123262000Y-102342000D02*
G75*
G02*
X123262000Y-105622000I2756592J-1640000D01*
G01*
%TD*%
M02*
