%TF.GenerationSoftware,KiCad,Pcbnew,8.0.1*%
%TF.CreationDate,2025-07-05T17:57:54-03:00*%
%TF.ProjectId,camera,63616d65-7261-42e6-9b69-6361645f7063,rev?*%
%TF.SameCoordinates,Original*%
%TF.FileFunction,Soldermask,Top*%
%TF.FilePolarity,Negative*%
%FSLAX46Y46*%
G04 Gerber Fmt 4.6, Leading zero omitted, Abs format (unit mm)*
G04 Created by KiCad (PCBNEW 8.0.1) date 2025-07-05 17:57:54*
%MOMM*%
%LPD*%
G01*
G04 APERTURE LIST*
G04 Aperture macros list*
%AMRoundRect*
0 Rectangle with rounded corners*
0 $1 Rounding radius*
0 $2 $3 $4 $5 $6 $7 $8 $9 X,Y pos of 4 corners*
0 Add a 4 corners polygon primitive as box body*
4,1,4,$2,$3,$4,$5,$6,$7,$8,$9,$2,$3,0*
0 Add four circle primitives for the rounded corners*
1,1,$1+$1,$2,$3*
1,1,$1+$1,$4,$5*
1,1,$1+$1,$6,$7*
1,1,$1+$1,$8,$9*
0 Add four rect primitives between the rounded corners*
20,1,$1+$1,$2,$3,$4,$5,0*
20,1,$1+$1,$4,$5,$6,$7,0*
20,1,$1+$1,$6,$7,$8,$9,0*
20,1,$1+$1,$8,$9,$2,$3,0*%
G04 Aperture macros list end*
%ADD10RoundRect,0.152400X0.609600X-1.063600X0.609600X1.063600X-0.609600X1.063600X-0.609600X-1.063600X0*%
%ADD11C,1.524000*%
%ADD12RoundRect,0.152400X-0.609600X1.063600X-0.609600X-1.063600X0.609600X-1.063600X0.609600X1.063600X0*%
%ADD13C,1.700000*%
%ADD14C,4.000000*%
%ADD15C,2.200000*%
%ADD16C,1.400000*%
%ADD17O,1.400000X1.400000*%
%ADD18C,2.019000*%
%ADD19RoundRect,0.102000X0.907500X-0.907500X0.907500X0.907500X-0.907500X0.907500X-0.907500X-0.907500X0*%
%ADD20RoundRect,0.102000X-0.907500X0.907500X-0.907500X-0.907500X0.907500X-0.907500X0.907500X0.907500X0*%
%ADD21RoundRect,0.102000X-0.907500X-0.907500X0.907500X-0.907500X0.907500X0.907500X-0.907500X0.907500X0*%
G04 APERTURE END LIST*
D10*
%TO.C,U1*%
X152677000Y-104987000D03*
D11*
X152677000Y-105822000D03*
D10*
X150137000Y-104987000D03*
D11*
X150137000Y-105822000D03*
D10*
X147597000Y-104987000D03*
D11*
X147597000Y-105822000D03*
D10*
X145057000Y-104987000D03*
D11*
X145057000Y-105822000D03*
D10*
X142517000Y-104987000D03*
D11*
X142517000Y-105822000D03*
D10*
X139977000Y-104987000D03*
D11*
X139977000Y-105822000D03*
D10*
X137437000Y-104987000D03*
D11*
X137437000Y-105822000D03*
X137437000Y-121062000D03*
D12*
X137437000Y-121897000D03*
D11*
X139977000Y-121062000D03*
D12*
X139977000Y-121897000D03*
D11*
X142517000Y-121062000D03*
D12*
X142517000Y-121897000D03*
D11*
X145057000Y-121062000D03*
D12*
X145057000Y-121897000D03*
D11*
X147597000Y-121062000D03*
D12*
X147597000Y-121897000D03*
D11*
X150137000Y-121062000D03*
D12*
X150137000Y-121897000D03*
D11*
X152677000Y-121062000D03*
D12*
X152677000Y-121897000D03*
%TD*%
D13*
%TO.C,SW5*%
X103932000Y-80982000D03*
D14*
X109012000Y-80982000D03*
D13*
X114092000Y-80982000D03*
D15*
X111552000Y-75902000D03*
X105202000Y-78442000D03*
%TD*%
D13*
%TO.C,SW4*%
X122932000Y-80982000D03*
D14*
X128012000Y-80982000D03*
D13*
X133092000Y-80982000D03*
D15*
X130552000Y-75902000D03*
X124202000Y-78442000D03*
%TD*%
D13*
%TO.C,SW3*%
X141932000Y-80982000D03*
D14*
X147012000Y-80982000D03*
D13*
X152092000Y-80982000D03*
D15*
X149552000Y-75902000D03*
X143202000Y-78442000D03*
%TD*%
D13*
%TO.C,SW2*%
X161432000Y-80982000D03*
D14*
X166512000Y-80982000D03*
D13*
X171592000Y-80982000D03*
D15*
X169052000Y-75902000D03*
X162702000Y-78442000D03*
%TD*%
%TO.C,SW1*%
X181702000Y-78442000D03*
X188052000Y-75902000D03*
D13*
X190592000Y-80982000D03*
D14*
X185512000Y-80982000D03*
D13*
X180432000Y-80982000D03*
%TD*%
D16*
%TO.C,R5*%
X152012000Y-126862000D03*
D17*
X152012000Y-131942000D03*
%TD*%
%TO.C,R4*%
X140512000Y-132062000D03*
D16*
X140512000Y-126982000D03*
%TD*%
D17*
%TO.C,R3*%
X129512000Y-126712000D03*
D16*
X129512000Y-131792000D03*
%TD*%
D17*
%TO.C,R2*%
X168012000Y-98982000D03*
D16*
X162932000Y-98982000D03*
%TD*%
%TO.C,R1*%
X123742000Y-98982000D03*
D17*
X128822000Y-98982000D03*
%TD*%
D18*
%TO.C,D5*%
X157512000Y-127942000D03*
D19*
X157512000Y-130482000D03*
%TD*%
D18*
%TO.C,D4*%
X145512000Y-128442000D03*
D19*
X145512000Y-130982000D03*
%TD*%
D20*
%TO.C,D3*%
X134512000Y-128172000D03*
D18*
X134512000Y-130712000D03*
%TD*%
%TO.C,D2*%
X167012000Y-103982000D03*
D21*
X164472000Y-103982000D03*
%TD*%
%TO.C,D1*%
X124742000Y-103982000D03*
D18*
X127282000Y-103982000D03*
%TD*%
M02*
