%TF.GenerationSoftware,KiCad,Pcbnew,8.0.1*%
%TF.CreationDate,2025-07-05T17:57:54-03:00*%
%TF.ProjectId,camera,63616d65-7261-42e6-9b69-6361645f7063,rev?*%
%TF.SameCoordinates,Original*%
%TF.FileFunction,OtherDrawing,Comment*%
%FSLAX46Y46*%
G04 Gerber Fmt 4.6, Leading zero omitted, Abs format (unit mm)*
G04 Created by KiCad (PCBNEW 8.0.1) date 2025-07-05 17:57:54*
%MOMM*%
%LPD*%
G01*
G04 APERTURE LIST*
%ADD10C,0.150000*%
G04 APERTURE END LIST*
D10*
%TO.C,SW5*%
X99487000Y-71457000D02*
X118537000Y-71457000D01*
X99487000Y-90507000D02*
X99487000Y-71457000D01*
X118537000Y-71457000D02*
X118537000Y-90507000D01*
X118537000Y-90507000D02*
X99487000Y-90507000D01*
%TO.C,SW4*%
X118487000Y-71457000D02*
X137537000Y-71457000D01*
X118487000Y-90507000D02*
X118487000Y-71457000D01*
X137537000Y-71457000D02*
X137537000Y-90507000D01*
X137537000Y-90507000D02*
X118487000Y-90507000D01*
%TO.C,SW3*%
X137487000Y-71457000D02*
X156537000Y-71457000D01*
X137487000Y-90507000D02*
X137487000Y-71457000D01*
X156537000Y-71457000D02*
X156537000Y-90507000D01*
X156537000Y-90507000D02*
X137487000Y-90507000D01*
%TO.C,SW2*%
X156987000Y-71457000D02*
X176037000Y-71457000D01*
X156987000Y-90507000D02*
X156987000Y-71457000D01*
X176037000Y-71457000D02*
X176037000Y-90507000D01*
X176037000Y-90507000D02*
X156987000Y-90507000D01*
%TO.C,SW1*%
X195037000Y-90507000D02*
X175987000Y-90507000D01*
X195037000Y-71457000D02*
X195037000Y-90507000D01*
X175987000Y-90507000D02*
X175987000Y-71457000D01*
X175987000Y-71457000D02*
X195037000Y-71457000D01*
%TD*%
M02*
