M48
; DRILL file {KiCad 8.0.1} date 2025-07-05T18:00:09-0300
; FORMAT={-:-/ absolute / inch / decimal}
; #@! TF.CreationDate,2025-07-05T18:00:09-03:00
; #@! TF.GenerationSoftware,Kicad,Pcbnew,8.0.1
; #@! TF.FileFunction,Plated,1,2,PTH
FMAT,2
INCH
; #@! TA.AperFunction,Plated,PTH,ComponentDrill
T1C0.0276
; #@! TA.AperFunction,Plated,PTH,ComponentDrill
T2C0.0350
; #@! TA.AperFunction,Plated,PTH,ComponentDrill
T3C0.0476
; #@! TA.AperFunction,Plated,PTH,ComponentDrill
T4C0.0591
%
G90
G05
T1
X4.8717Y-3.8969
X5.0717Y-3.8969
X5.0989Y-4.9887
X5.0989Y-5.1887
X5.532Y-4.9993
X5.532Y-5.1993
X5.9847Y-4.9946
X5.9847Y-5.1946
X6.4146Y-3.8969
X6.6146Y-3.8969
T2
X5.4109Y-4.1662
X5.4109Y-4.7662
X5.5109Y-4.1662
X5.5109Y-4.7662
X5.6109Y-4.1662
X5.6109Y-4.7662
X5.7109Y-4.1662
X5.7109Y-4.7662
X5.8109Y-4.1662
X5.8109Y-4.7662
X5.9109Y-4.1662
X5.9109Y-4.7662
X6.0109Y-4.1662
X6.0109Y-4.7662
T3
X4.9111Y-4.0938
X5.0111Y-4.0938
X5.2957Y-5.0461
X5.2957Y-5.1461
X5.7288Y-5.0568
X5.7288Y-5.1568
X6.2013Y-5.0371
X6.2013Y-5.1371
X6.4753Y-4.0938
X6.5753Y-4.0938
T4
X4.1418Y-3.0883
X4.3918Y-2.9883
X4.8898Y-3.0883
X5.1398Y-2.9883
X5.6379Y-3.0883
X5.8879Y-2.9883
X6.4056Y-3.0883
X6.6556Y-2.9883
X7.1536Y-3.0883
X7.4036Y-2.9883
M30
